<svg xmlns="http://www.w3.org/2000/svg" xmlns:xlink="http://www.w3.org/1999/xlink" id="body_1" preserveAspectRatio="xMinYMin meet" viewBox="0 0 816 1056"><defs><clipPath id="1"><path d="M0 792L0 0L0 0L612 0L612 0L612 792L612 792L0 792z" /></clipPath><clipPath id="2"><path d="M-2.57698E+08 2.57698E+08L2.57698E+08 2.57698E+08L2.57698E+08 2.57698E+08L2.57698E+08 -2.57698E+08L2.57698E+08 -2.57698E+08L-2.57698E+08 -2.57698E+08z" /></clipPath><clipPath id="3"><path d="M34 229L578 229L578 229L578 212L578 212L34 212z" /></clipPath><clipPath id="4"><path d="M-2.57698E+08 2.57698E+08L2.57698E+08 2.57698E+08L2.57698E+08 2.57698E+08L2.57698E+08 -2.57698E+08L2.57698E+08 -2.57698E+08L-2.57698E+08 -2.57698E+08z" /></clipPath><clipPath id="5"><path d="M34 278L578 278L578 278L578 261L578 261L34 261z" /></clipPath><clipPath id="6"><path d="M-2.57698E+08 2.57698E+08L2.57698E+08 2.57698E+08L2.57698E+08 2.57698E+08L2.57698E+08 -2.57698E+08L2.57698E+08 -2.57698E+08L-2.57698E+08 -2.57698E+08z" /></clipPath><clipPath id="7"><path d="M34 322L578 322L578 322L578 306L578 306L34 306z" /></clipPath><clipPath id="8"><path d="M-2.57698E+08 2.57698E+08L2.57698E+08 2.57698E+08L2.57698E+08 2.57698E+08L2.57698E+08 -2.57698E+08L2.57698E+08 -2.57698E+08L-2.57698E+08 -2.57698E+08z" /></clipPath><clipPath id="9"><path d="M468.24 70.56L570.72 70.56L570.72 70.56L570.72 83.52002L570.72 83.52002L468.24 83.52002z" /></clipPath><clipPath id="10"><path d="M-2.57698E+08 2.57698E+08L2.57698E+08 2.57698E+08L2.57698E+08 2.57698E+08L2.57698E+08 -2.57698E+08L2.57698E+08 -2.57698E+08L-2.57698E+08 -2.57698E+08z" /></clipPath><clipPath id="11"><path d="M468.24 83.76001L570.96 83.76001L570.96 83.76001L570.96 70.56L570.96 70.56L468.24 70.56z" /></clipPath><clipPath id="12"><path d="M468.24 83.76001L570.96 83.76001L570.96 83.76001L570.96 70.56L570.96 70.56L468.24 70.56z" /></clipPath><clipPath id="13"><path d="M-2.57698E+08 2.57698E+08L2.57698E+08 2.57698E+08L2.57698E+08 2.57698E+08L2.57698E+08 -2.57698E+08L2.57698E+08 -2.57698E+08L-2.57698E+08 -2.57698E+08z" /></clipPath><clipPath id="14"><path d="M388.8 37.91998L571.68 37.91998L571.68 37.91998L571.68 50.88L571.68 50.88L388.8 50.88z" /></clipPath><clipPath id="15"><path d="M-2.57698E+08 2.57698E+08L2.57698E+08 2.57698E+08L2.57698E+08 2.57698E+08L2.57698E+08 -2.57698E+08L2.57698E+08 -2.57698E+08L-2.57698E+08 -2.57698E+08z" /></clipPath><clipPath id="16"><path d="M388.8 51.12L571.92 51.12L571.92 51.12L571.92 37.91998L571.92 37.91998L388.8 37.91998z" /></clipPath><clipPath id="17"><path d="M388.8 51.12L571.92 51.12L571.92 51.12L571.92 37.91998L571.92 37.91998L388.8 37.91998z" /></clipPath><clipPath id="18"><path d="M189.12 29.52002L272.64 29.52002L272.64 29.52002L272.64 52.79999L272.64 52.79999L189.12 52.79999z" /></clipPath><clipPath id="19"><path d="M-2.57698E+08 2.57698E+08L2.57698E+08 2.57698E+08L2.57698E+08 2.57698E+08L2.57698E+08 -2.57698E+08L2.57698E+08 -2.57698E+08L-2.57698E+08 -2.57698E+08z" /></clipPath><clipPath id="20"><path d="M189.12 53.03998L272.88 53.03998L272.88 53.03998L272.88 29.27997L272.88 29.27997L189.12 29.27997z" /></clipPath><clipPath id="21"><path d="M189.12 53.03998L272.88 53.03998L272.88 53.03998L272.88 29.27997L272.88 29.27997L189.12 29.27997z" /></clipPath><clipPath id="22"><path d="M46.08 29.52002L173.52 29.52002L173.52 29.52002L173.52 84.47998L173.52 84.47998L46.08 84.47998z" /></clipPath><clipPath id="23"><path d="M-2.57698E+08 2.57698E+08L2.57698E+08 2.57698E+08L2.57698E+08 2.57698E+08L2.57698E+08 -2.57698E+08L2.57698E+08 -2.57698E+08L-2.57698E+08 -2.57698E+08z" /></clipPath><clipPath id="24"><path d="M46.08 84.71997L173.52 84.71997L173.52 84.71997L173.52 29.27997L173.52 29.27997L46.08 29.27997z" /></clipPath><clipPath id="25"><path d="M46.08 84.71997L173.52 84.71997L173.52 84.71997L173.52 29.27997L173.52 29.27997L46.08 29.27997z" /></clipPath><clipPath id="26"><path d="M46.08 84.71997L173.52 84.71997L173.52 84.71997L173.52 29.27997L173.52 29.27997L46.08 29.27997z" /></clipPath><clipPath id="27"><path d="M46.08 84.71997L173.52 84.71997L173.52 84.71997L173.52 29.27997L173.52 29.27997L46.08 29.27997z" /></clipPath></defs><g transform="matrix(1.333333 0 0 1.333333 0 0)"><g><g clip-path="url(#1)"><g clip-path="url(#2)"><path transform="matrix(1 0 0 -1 0 792)" d="M34.55008 579.0501L577.5501 579.0501L577.5501 579.0501L577.5501 563.8001L577.5501 563.8001L34.55008 563.8001z" stroke="none" fill="#F1F1F1" fill-rule="winding" /></g><g clip-path="url(#3)"></g><g clip-path="url(#4)"><path transform="matrix(1 0 0 -1 0 792)" d="M34.55008 530.1001L577.5501 530.1001L577.5501 530.1001L577.5501 514.8501L577.5501 514.8501L34.55008 514.8501z" stroke="none" fill="#F1F1F1" fill-rule="winding" /></g><g clip-path="url(#5)"></g><g clip-path="url(#6)"><path transform="matrix(1 0 0 -1 0 792)" d="M34.55008 486.0999L577.5501 486.0999L577.5501 486.0999L577.5501 470.8499L577.5501 470.8499L34.55008 470.8499z" stroke="none" fill="#F1F1F1" fill-rule="winding" /></g><g clip-path="url(#7)"></g><g clip-path="url(#8)"><path transform="matrix(1 0 0 -1 0 792)" d="M34.55008 768L577.5501 768L577.5501 768L577.5501 762.6L577.5501 762.6L34.55008 762.6z" stroke="none" fill="#16355C" fill-rule="winding" /><path transform="matrix(1 0 0 -1 0 792)" d="M34.55008 762.6L577.5501 762.6L577.5501 762.6L577.5501 735.6L577.5501 735.6L34.55008 735.6z" stroke="none" fill="#16355C" fill-rule="winding" /><path transform="matrix(1 0 0 -1 0 792)" d="M34.55008 735.6L577.5501 735.6L577.5501 735.6L577.5501 726.2L577.5501 726.2L34.55008 726.2z" stroke="none" fill="#16355C" fill-rule="winding" /><path transform="matrix(1 0 0 -1 0 792)" d="M34.55008 726.25L577.5501 726.25L577.5501 726.25L577.5501 707.35L577.5501 707.35L34.55008 707.35z" stroke="none" fill="#16355C" fill-rule="winding" /><path transform="matrix(1 0 0 -1 0 792)" d="M34.55008 707.4L577.5501 707.4L577.5501 707.4L577.5501 702.7L577.5501 702.7L34.55008 702.7z" stroke="none" fill="#16355C" fill-rule="winding" /></g><g clip-path="url(#9)"><g clip-path="url(#10)"><g transform="matrix(0.24 0 0 0.24 468.24 70.56)"><g transform="matrix(1 0 0 1 0 0)"><image x="0" y="0" xlink:href="img_01.png" width="427" height="54" /></g></g></g></g><g clip-path="url(#11)"></g><g clip-path="url(#12)"></g><g clip-path="url(#13)"><path transform="matrix(1 0 0 -1 0 792)" d="M527.76 709.44L569.52 709.44L569.52 709.44L569.52 710.16L569.52 710.16L527.76 710.16z" stroke="none" fill="#BEBEBE" fill-rule="evenodd" /></g><g clip-path="url(#14)"><g clip-path="url(#15)"><g transform="matrix(0.24 0 0 0.24 388.8 37.91998)"><g transform="matrix(1 0 0 1 0 0)"><image x="0" y="0" xlink:href="img_02.png" width="762" height="54" /></g></g></g></g><g clip-path="url(#16)"></g><g clip-path="url(#17)"></g><g clip-path="url(#18)"><g clip-path="url(#19)"><g transform="matrix(0.24 0 0 0.24 189.12 29.51996)"><g transform="matrix(1 0 0 1 0 0)"><image x="0" y="0" xlink:href="img_03.png" width="348" height="97" /></g></g></g></g><g clip-path="url(#20)"></g><g clip-path="url(#21)"></g><g clip-path="url(#22)"><g clip-path="url(#23)"><g transform="matrix(0.24 0 0 0.24 46.08 29.51996)"><g transform="matrix(1 0 0 1 0 0)"><image x="0" y="0" xlink:href="img_04.png" width="531" height="229" /></g></g></g></g><g clip-path="url(#24)"></g><g clip-path="url(#25)"></g><g clip-path="url(#26)"></g><g clip-path="url(#27)"></g></g></g></g></svg>